<svg xmlns="http://www.w3.org/2000/svg" xmlns:xlink="http://www.w3.org/1999/xlink"
  viewBox="0 0 867.38 165.71">
  <defs>
    <style>
      .cls-1{fill:none;}.class-2e{fill:#86a041;}.cls-3{fill:#9fa1a4;}.cls-4{fill:#fff;opacity:0.4;}.cls-5{clip-path:url(#clip-path);}.cls-6{fill:url(#_2301_Gradient_Swatch_8);}.cls-7{clip-path:url(#clip-path-2);}.cls-8{fill:url(#linear-gradient);}.cls-9{clip-path:url(#clip-path-3);}.cls-10,.cls-12{opacity:0.67;}.cls-10{fill:url(#_423_Gradient_Swatch_4);}.cls-11{clip-path:url(#clip-path-4);}.cls-12{fill:url(#_423_Gradient_Swatch_4-2);}</style>
    <clipPath id="clip-path">
      <path class="cls-1"
        d="M713.36,146.25c-2.75,10.5-7.44,17.43-12.77,17.43H654.71c5.33,0,10-6.93,12.77-17.44L699.84,19.65c2.75-10.51,7.44-17.43,12.77-17.43h45.88c-5.34,0-10,6.92-12.77,17.43Z"></path>
    </clipPath>
    <linearGradient id="_2301_Gradient_Swatch_8" x1="706.59" y1="1.59" x2="706.59" y2="164.98"
      gradientUnits="userSpaceOnUse">
      <stop offset="0" stop-color="#8fb430"></stop>
      <stop offset="0.41" stop-color="#d1deae"></stop>
      <stop offset="1" stop-color="#8fb430"></stop>
    </linearGradient>
    <clipPath id="clip-path-2">
      <path class="cls-1"
        d="M770.5,163.68h45.89c5.33,0,10-6.93,12.76-17.43l36.6-144h-45.9l-36.57,144C780.53,156.75,775.84,163.68,770.5,163.68Z"></path>
    </clipPath>
    <linearGradient id="linear-gradient" x1="818.13" y1="1.61" x2="818.13" y2="165"
      gradientUnits="userSpaceOnUse">
      <stop offset="0" stop-color="#86a041"></stop>
      <stop offset="0.41" stop-color="#d1deae"></stop>
      <stop offset="1" stop-color="#86a041"></stop>
    </linearGradient>
    <clipPath id="clip-path-3">
      <path class="cls-1"
        d="M771.26,19.65c-2.75-10.51-7.44-17.43-12.77-17.43H712.61c5.33,0,10,6.92,11.81,17.43l32.35,126.6c2.64,10.54,8.4,17.43,13.73,17.43h45.89c-5.34,0-10-6.93-12.78-17.44Z"></path>
    </clipPath>
    <linearGradient id="_423_Gradient_Swatch_4" x1="764.5" y1="1.61" x2="764.5" y2="165"
      gradientUnits="userSpaceOnUse">
      <stop offset="0" stop-color="#9fa1a4"></stop>
      <stop offset="0.4" stop-color="#e0e1e2"></stop>
      <stop offset="1" stop-color="#9fa1a4"></stop>
    </linearGradient>
    <clipPath id="clip-path-4">
      <path class="cls-1"
        d="M700.59,163.68H654.71c-5.33,0-10-6.93-12.77-17.43l-36.6-144h45.9l36.58,144C690.57,156.75,695.26,163.68,700.59,163.68Z"></path>
    </clipPath>
    <linearGradient id="_423_Gradient_Swatch_4-2" x1="652.97" y1="1.61" x2="652.97" y2="165"
      xlink:href="#_423_Gradient_Swatch_4"></linearGradient>
  </defs>
  <title>Asset 2</title>
  <g id="Layer_2" data-name="Layer 2">
    <g id="Layer_2-2" data-name="Layer 2">
      <path class="class-2e"
        d="M23.6,13.92,22.48,19q-1.36,5.55-2.63,11.06t-2.5,10.53H9q-2.13-9.68-4.31-19.2T.29,2.18H8.56c.19,1.1.4,2.24.61,3.43s.49,2.57.8,4.18.68,3.54,1.09,5.79.94,5,1.57,8.14l1,5.84h.24c.19-1,.39-2,.58-2.92s.4-1.94.59-2.92Q16.29,18.35,17.49,13t2.39-10.8h7.61l5,21.77c.2.95.38,1.88.56,2.81s.36,1.85.56,2.8h.18l1-5.61,2-10.68q1.07-5.65,2.12-11.09H47L38.29,40.59H29.85q-1.29-5.37-2.53-10.71T24.84,19.17l-1.12-5.25Z"></path>
      <path class="class-2e"
        d="M65.31,41.24A16.91,16.91,0,0,1,58,39.74a15,15,0,0,1-5.28-4.13,18.11,18.11,0,0,1-3.22-6.26,27.12,27.12,0,0,1-1.09-7.87,27.45,27.45,0,0,1,1.09-7.91,18.06,18.06,0,0,1,3.25-6.31A15,15,0,0,1,58,3.1a16.77,16.77,0,0,1,7.34-1.51A17.22,17.22,0,0,1,72.48,3a14.86,14.86,0,0,1,5.37,4,17.86,17.86,0,0,1,3.36,6.28,26.8,26.8,0,0,1,1.15,8.09,27,27,0,0,1-1.15,8.14,17.46,17.46,0,0,1-3.36,6.25,15,15,0,0,1-5.37,4A17.22,17.22,0,0,1,65.31,41.24Zm0-32.63a7.7,7.7,0,0,0-3.89,1,8,8,0,0,0-2.77,2.65,12.39,12.39,0,0,0-1.66,4,23.31,23.31,0,0,0-.53,5.11,22,22,0,0,0,.56,5.1,13.38,13.38,0,0,0,1.68,4.07,8.39,8.39,0,0,0,2.78,2.72,7.51,7.51,0,0,0,3.89,1,7.36,7.36,0,0,0,3.93-1,8.56,8.56,0,0,0,2.77-2.78,13.36,13.36,0,0,0,1.65-4.07,21.13,21.13,0,0,0,.56-4.92,22.49,22.49,0,0,0-.56-5.14A12.61,12.61,0,0,0,72,12.21a8,8,0,0,0-2.8-2.65A7.89,7.89,0,0,0,65.31,8.61Z"></path>
      <path class="class-2e"
        d="M117,40.59V18.23h-.18l-4.31,9.15-6.43,13.21-6-12.39-4.66-10h-.18V40.59H87.61V2.18H95.4L101,14l5,10.86h.3l4.78-10.39,5.84-12.27h7.73V40.59Z"></path>
      <path class="class-2e" d="M132.22,2.18H159.3V8.91H140v8.14h13.51v6.79H140v10H160v6.78H132.22Z"></path>
      <path class="class-2e"
        d="M189.39,40.59l-11-16.52-5.79-9h-.17V40.59h-7.73V2.18H172L181.9,17l6.54,10.27h.18V2.18h7.73V40.59Z"></path>
      <path class="class-2e"
        d="M203.9,13.57a7.61,7.61,0,0,0,3.72-5,4.49,4.49,0,0,1-2.92-1,3.66,3.66,0,0,1-1.21-3,4.47,4.47,0,0,1,1.24-3.24A4.12,4.12,0,0,1,207.86,0a4.41,4.41,0,0,1,3.54,1.62,6.38,6.38,0,0,1,1.35,4.22,9.93,9.93,0,0,1-1.94,6.2A16.94,16.94,0,0,1,206,16.28Z"></path>
      <path class="class-2e"
        d="M232.07,1.53a22,22,0,0,1,7.49,1.24,20.06,20.06,0,0,1,6.14,3.54L241.21,12a14.59,14.59,0,0,0-9.61-3.6,6.22,6.22,0,0,0-4.22,1.18,3.65,3.65,0,0,0-1.33,2.83,2.8,2.8,0,0,0,.59,1.8,5.13,5.13,0,0,0,1.56,1.27,13.47,13.47,0,0,0,2.22.94c.82.28,1.69.55,2.59.83,1.42.39,2.93.85,4.54,1.38A19,19,0,0,1,242,20.77a11.6,11.6,0,0,1,3.42,3.45,9.62,9.62,0,0,1,1.36,5.34,11.39,11.39,0,0,1-1.06,5,10,10,0,0,1-3,3.66A14,14,0,0,1,238,40.47a24.52,24.52,0,0,1-14.46-.7,19.38,19.38,0,0,1-6.61-4.08l4.72-5.54a16.42,16.42,0,0,0,5,3.13A14.92,14.92,0,0,0,232,34.34q6.72,0,6.72-4.49a3.4,3.4,0,0,0-1.74-3,24.57,24.57,0,0,0-6-2.28q-3.07-.88-5.46-1.83a14.61,14.61,0,0,1-4-2.27A8.77,8.77,0,0,1,219,17.29a10.58,10.58,0,0,1-.86-4.49,9.89,9.89,0,0,1,1.13-4.75,10.87,10.87,0,0,1,3-3.54A13.84,13.84,0,0,1,226.7,2.3,18.49,18.49,0,0,1,232.07,1.53Z"></path>
      <path class="class-2e"
        d="M291.3,24.19H275.43v16.4h-7.85V2.18h7.85V17.35H291.3V2.18h7.85V40.59H291.3Z"></path>
      <path class="class-2e"
        d="M306.52,2.18H333.6V8.91H314.31v8.14h13.51v6.79H314.31v10h19.94v6.78H306.52Z"></path>
      <path class="class-2e"
        d="M363.22,32.45H347.41l-2.83,8.14h-8.14L351,2.18h8.85l14.63,38.41h-8.38Zm-8-22.42c-.12.39-.3.94-.53,1.65L354,13.84c-.26.72-.49,1.42-.71,2.09s-.38,1.16-.5,1.47l-3.19,8.85H361l-3.48-9.91c-.12-.31-.27-.74-.44-1.3s-.38-1.13-.59-1.74-.43-1.21-.62-1.8-.36-1.08-.48-1.47Z"></path>
      <path class="class-2e" d="M378.62,2.18h7.79V33.81h18.76v6.78H378.62Z"></path>
      <path class="class-2e" d="M419.33,40.59h-7.79V8.91H400.33V2.18h30.21V8.91H419.33Z"></path>
      <path class="class-2e"
        d="M458.68,24.19H442.81v16.4H435V2.18h7.84V17.35h15.87V2.18h7.85V40.59h-7.85Z"></path>
      <path class="class-2e"
        d="M32.92,75.78A12.19,12.19,0,0,1,31,83a10.74,10.74,0,0,1-5.46,4l7.08,15.16h-8.2L18.17,88H10.38v14.1H2.66V63.68H19.71a18.05,18.05,0,0,1,5.25.74,11.91,11.91,0,0,1,4.19,2.21,10.15,10.15,0,0,1,2.77,3.78A13.3,13.3,0,0,1,32.92,75.78ZM10.38,70.41V81.32h8.5a6.5,6.5,0,0,0,4.45-1.38,5.26,5.26,0,0,0,1.57-4.16,4.88,4.88,0,0,0-1.65-4,6.56,6.56,0,0,0-4.31-1.36Z"></path>
      <path class="class-2e"
        d="M39.06,63.68H66.14v6.73H46.85v8.14H60.36v6.79H46.85v10H66.79v6.78H39.06Z"></path>
      <path class="class-2e"
        d="M85.55,63A22,22,0,0,1,93,64.27a20.06,20.06,0,0,1,6.14,3.54l-4.49,5.67a14.59,14.59,0,0,0-9.61-3.6,6.22,6.22,0,0,0-4.22,1.18,3.64,3.64,0,0,0-1.33,2.83,2.8,2.8,0,0,0,.59,1.8A5.18,5.18,0,0,0,81.69,77a13,13,0,0,0,2.21.94c.82.28,1.69.55,2.59.83,1.42.39,2.93.85,4.55,1.38a19.12,19.12,0,0,1,4.48,2.16,11.48,11.48,0,0,1,3.42,3.45,9.62,9.62,0,0,1,1.36,5.34,11.25,11.25,0,0,1-1.06,5,9.87,9.87,0,0,1-3,3.66A14,14,0,0,1,91.45,102a24.52,24.52,0,0,1-14.46-.7,19.33,19.33,0,0,1-6.6-4.08l4.72-5.54a16.26,16.26,0,0,0,5,3.13,14.92,14.92,0,0,0,5.34,1.06q6.74,0,6.73-4.49a3.4,3.4,0,0,0-1.74-3,24.69,24.69,0,0,0-6-2.28q-3.08-.89-5.46-1.83a14.61,14.61,0,0,1-4-2.27,8.88,8.88,0,0,1-2.48-3.15,10.58,10.58,0,0,1-.85-4.49,9.89,9.89,0,0,1,1.12-4.75,10.9,10.9,0,0,1,3-3.54,13.68,13.68,0,0,1,4.42-2.21A18.49,18.49,0,0,1,85.55,63Z"></path>
      <path class="class-2e"
        d="M105.55,63.68h27.08v6.73H113.34v8.14h13.51v6.79H113.34v10h19.94v6.78H105.55Z"></path>
      <path class="class-2e"
        d="M162.25,94H146.44l-2.84,8.14h-8.14L150,63.68h8.85l14.63,38.41h-8.38Zm-8-22.42c-.11.39-.29.94-.53,1.65s-.48,1.43-.73,2.16-.5,1.42-.71,2.09-.39,1.16-.5,1.48l-3.19,8.84h11.45l-3.49-9.91c-.11-.31-.26-.74-.44-1.3s-.37-1.12-.59-1.74l-.62-1.8c-.19-.58-.35-1.08-.47-1.47Z"></path>
      <path class="class-2e"
        d="M208,75.78a12.19,12.19,0,0,1-2,7.2,10.74,10.74,0,0,1-5.46,4l7.08,15.16h-8.2L193.22,88h-7.78v14.1h-7.73V63.68h17a18,18,0,0,1,5.25.74,11.91,11.91,0,0,1,4.19,2.21A10.15,10.15,0,0,1,207,70.41,13.3,13.3,0,0,1,208,75.78Zm-22.53-5.37V81.32h8.49a6.54,6.54,0,0,0,4.46-1.38A5.28,5.28,0,0,0,200,75.78a4.88,4.88,0,0,0-1.65-4A6.55,6.55,0,0,0,194,70.41Z"></path>
      <path class="class-2e"
        d="M213.11,82.74a25.72,25.72,0,0,1,1.21-8.14,17.93,17.93,0,0,1,3.42-6.23,14.78,14.78,0,0,1,5.37-4A17.55,17.55,0,0,1,230.22,63,16.94,16.94,0,0,1,238,64.69a16.35,16.35,0,0,1,5.46,4.48l-5.6,5a11.66,11.66,0,0,0-3.72-3.09,9.1,9.1,0,0,0-4-.92,7.59,7.59,0,0,0-3.84,1,8.54,8.54,0,0,0-2.8,2.63,12.41,12.41,0,0,0-1.74,4,20.73,20.73,0,0,0-.59,5.09,21.76,21.76,0,0,0,.56,5A12.54,12.54,0,0,0,223.46,92a8.62,8.62,0,0,0,2.86,2.75,7.67,7.67,0,0,0,4,1,8.92,8.92,0,0,0,4.13-1,13.05,13.05,0,0,0,3.89-3.28l5.55,4.78a19.3,19.3,0,0,1-5.52,4.68,16.38,16.38,0,0,1-8.23,1.87,17,17,0,0,1-7-1.39,14.69,14.69,0,0,1-5.34-4,18.17,18.17,0,0,1-3.42-6.28A26.63,26.63,0,0,1,213.11,82.74Z"></path>
      <path class="class-2e"
        d="M272.46,85.69H256.59v16.4h-7.85V63.68h7.85V78.85h15.87V63.68h7.85v38.41h-7.85Z"></path>
      <path class="class-2e" d="M304,63.68h7.9v38.41H304Z"></path>
      <path class="class-2e"
        d="M344.56,102.09l-11-16.52-5.78-9h-.18v25.55h-7.72V63.68h7.31l9.91,14.81,6.55,10.27h.18V63.68h7.73v38.41Z"></path>
      <path class="class-2e"
        d="M372.58,63a22.06,22.06,0,0,1,7.5,1.24,20,20,0,0,1,6.13,3.54l-4.48,5.67a14.59,14.59,0,0,0-9.62-3.6,6.24,6.24,0,0,0-4.22,1.18,3.67,3.67,0,0,0-1.33,2.83,2.8,2.8,0,0,0,.59,1.8A5.3,5.3,0,0,0,368.72,77a13.35,13.35,0,0,0,2.21.94c.83.28,1.69.55,2.6.83,1.41.39,2.93.85,4.54,1.38a18.93,18.93,0,0,1,4.48,2.16A11.63,11.63,0,0,1,386,85.72a9.7,9.7,0,0,1,1.35,5.34,11.25,11.25,0,0,1-1.06,5,9.87,9.87,0,0,1-3,3.66,14,14,0,0,1-4.75,2.24,24.49,24.49,0,0,1-14.45-.7,19.28,19.28,0,0,1-6.61-4.08l4.72-5.54a16.26,16.26,0,0,0,5,3.13,14.92,14.92,0,0,0,5.34,1.06q6.74,0,6.73-4.49a3.4,3.4,0,0,0-1.74-3A24.69,24.69,0,0,0,371.46,86c-2-.59-3.86-1.2-5.46-1.83a14.61,14.61,0,0,1-4-2.27,8.88,8.88,0,0,1-2.48-3.15,10.58,10.58,0,0,1-.85-4.49,9.89,9.89,0,0,1,1.12-4.75,11,11,0,0,1,3-3.54,13.79,13.79,0,0,1,4.42-2.21A18.49,18.49,0,0,1,372.58,63Z"></path>
      <path class="class-2e" d="M409,102.09H401.2V70.41H390V63.68h30.2v6.73H409Z"></path>
      <path class="class-2e" d="M425.39,63.68h7.9v38.41h-7.9Z"></path>
      <path class="class-2e" d="M457.78,102.09H450V70.41H438.78V63.68H469v6.73H457.78Z"></path>
      <path class="class-2e"
        d="M489.05,102.68a18.6,18.6,0,0,1-6.49-1.06,12.69,12.69,0,0,1-4.9-3.16,14,14,0,0,1-3.1-5.25,22.37,22.37,0,0,1-1.09-7.34V63.68h7.85V85.57q0,4.79,2,7.44a6.86,6.86,0,0,0,5.87,2.65c2.72,0,4.71-.84,6-2.54s1.92-4.11,1.92-7.25V63.68H505V85.93a21.75,21.75,0,0,1-1.13,7.37,13.83,13.83,0,0,1-3.18,5.22,12.92,12.92,0,0,1-5,3.13A19.83,19.83,0,0,1,489.05,102.68Z"></path>
      <path class="class-2e" d="M528.46,102.09h-7.79V70.41H509.46V63.68h30.21v6.73H528.46Z"></path>
      <path class="class-2e"
        d="M544.15,63.68h27.08v6.73H551.94v8.14h13.51v6.79H551.94v10h19.94v6.78H544.15Z"></path>
      <path class="cls-3"
        d="M26.79,155.45H11l-2.83,8.14H0l14.57-38.41h8.85l14.64,38.41H29.68Zm-8-22.42c-.12.39-.29.94-.53,1.65s-.48,1.43-.74,2.16-.49,1.42-.71,2.09-.38,1.16-.5,1.48l-3.18,8.84H24.6l-3.48-9.91c-.12-.31-.26-.74-.44-1.3s-.37-1.12-.59-1.74-.42-1.21-.62-1.8-.35-1.08-.47-1.47Z"></path>
      <path class="cls-3" d="M56.7,163.59H48.91V131.91H37.7v-6.73H67.91v6.73H56.7Z"></path>
      <path class="cls-3"
        d="M111.45,142.82a9.93,9.93,0,0,1,2.51,1.24,9.71,9.71,0,0,1,2.12,2,9.9,9.9,0,0,1,1.48,2.63,8.93,8.93,0,0,1,.56,3.18q0,5.55-3.51,8.64t-10,3.1h-17V125.18h17.17a17.52,17.52,0,0,1,4.81.62,10.43,10.43,0,0,1,3.69,1.86,8.67,8.67,0,0,1,2.39,3,9.6,9.6,0,0,1,.85,4.16,7.91,7.91,0,0,1-1.53,4.84,8.83,8.83,0,0,1-3.6,3Zm-16-10.91V140h8.44a5.24,5.24,0,0,0,3.54-1.12,3.8,3.8,0,0,0,1.3-3,3.65,3.65,0,0,0-1.21-2.92,5.27,5.27,0,0,0-3.51-1Zm0,14.57v10.33H104q6,0,6-5.19a4.46,4.46,0,0,0-1.74-3.9,7.14,7.14,0,0,0-4.27-1.24Z"></path>
      <path class="cls-3"
        d="M122.19,144.24a25.72,25.72,0,0,1,1.21-8.14,17.93,17.93,0,0,1,3.42-6.23,14.78,14.78,0,0,1,5.37-4,17.55,17.55,0,0,1,7.11-1.39,16.94,16.94,0,0,1,7.81,1.66,16.35,16.35,0,0,1,5.46,4.48l-5.6,5a11.66,11.66,0,0,0-3.72-3.09,9.1,9.1,0,0,0-4-.92,7.59,7.59,0,0,0-3.84,1,8.54,8.54,0,0,0-2.8,2.63,12.41,12.41,0,0,0-1.74,4,20.73,20.73,0,0,0-.59,5.09,21.76,21.76,0,0,0,.56,5,12.54,12.54,0,0,0,1.71,4.08,8.62,8.62,0,0,0,2.86,2.75,7.67,7.67,0,0,0,4,1,8.92,8.92,0,0,0,4.13-1,13.05,13.05,0,0,0,3.89-3.28l5.55,4.78a19.3,19.3,0,0,1-5.52,4.68,16.38,16.38,0,0,1-8.23,1.87,17,17,0,0,1-7-1.39,14.69,14.69,0,0,1-5.34-4,18.17,18.17,0,0,1-3.42-6.28A26.63,26.63,0,0,1,122.19,144.24Z"></path>
      <path class="cls-3"
        d="M194.05,136.92,192.93,142q-1.37,5.55-2.63,11.06t-2.51,10.53h-8.37q-2.13-9.68-4.31-19.2t-4.37-19.21H179c.2,1.1.41,2.24.62,3.42s.48,2.58.8,4.19.68,3.54,1.09,5.79.93,4.95,1.56,8.14l1,5.84h.23c.2-1,.39-2,.59-2.92s.39-1.94.59-2.92q1.24-5.37,2.45-10.74t2.39-10.8h7.61l5,21.77c.19,1,.38,1.88.56,2.81s.36,1.86.56,2.8h.18l1-5.61q.95-5,2-10.68t2.13-11.09h8.08l-8.67,38.41H200.3q-1.29-5.37-2.54-10.71t-2.47-10.71l-1.12-5.25Z"></path>
      <path class="cls-3"
        d="M235.76,164.24a17,17,0,0,1-7.35-1.5,15.14,15.14,0,0,1-5.28-4.13,18.27,18.27,0,0,1-3.21-6.26,27.12,27.12,0,0,1-1.09-7.87,27.45,27.45,0,0,1,1.09-7.91,18.22,18.22,0,0,1,3.24-6.31,15.16,15.16,0,0,1,5.31-4.16,16.84,16.84,0,0,1,7.35-1.51,17.13,17.13,0,0,1,7.11,1.42,15,15,0,0,1,5.37,4,18.19,18.19,0,0,1,3.36,6.28,29.21,29.21,0,0,1,0,16.23,17.78,17.78,0,0,1-3.36,6.25,15.25,15.25,0,0,1-5.37,4A17.44,17.44,0,0,1,235.76,164.24Zm0-32.63a7.68,7.68,0,0,0-3.89.95,8.08,8.08,0,0,0-2.78,2.65,12.38,12.38,0,0,0-1.65,4,23.31,23.31,0,0,0-.53,5.11,22,22,0,0,0,.56,5.1,12.9,12.9,0,0,0,1.68,4.07,8.36,8.36,0,0,0,2.77,2.72,7.55,7.55,0,0,0,3.9,1,7.33,7.33,0,0,0,3.92-1,8.49,8.49,0,0,0,2.78-2.78,13.88,13.88,0,0,0,1.65-4.07,21.13,21.13,0,0,0,.56-4.92,22.49,22.49,0,0,0-.56-5.14,13.08,13.08,0,0,0-1.68-4.07,8.07,8.07,0,0,0-2.81-2.65A7.87,7.87,0,0,0,235.76,131.61Z"></path>
      <path class="cls-3"
        d="M287.44,163.59V141.23h-.17L283,150.38l-6.43,13.21-6-12.39-4.66-10h-.18v22.36h-7.67V125.18h7.79l5.6,11.8,5,10.86h.29l4.78-10.38,5.84-12.28h7.73v38.41Z"></path>
      <path class="cls-3"
        d="M302.66,125.18h27.09v6.73h-19.3v8.14H324v6.79H310.45v10H330.4v6.78H302.66Z"></path>
      <path class="cls-3"
        d="M359.84,163.59l-11-16.52L343,138h-.18v25.55h-7.73V125.18h7.32L352.34,140l6.55,10.27h.18V125.18h7.73v38.41Z"></path>
      <path class="cls-3"
        d="M374.35,136.57a7.67,7.67,0,0,0,3.72-5,4.49,4.49,0,0,1-2.92-1,3.66,3.66,0,0,1-1.21-3,4.49,4.49,0,0,1,1.24-3.24,4.1,4.1,0,0,1,3.12-1.3,4.39,4.39,0,0,1,3.54,1.62,6.33,6.33,0,0,1,1.36,4.22,9.89,9.89,0,0,1-1.95,6.2,16.8,16.8,0,0,1-4.84,4.24Z"></path>
      <path class="cls-3"
        d="M402.52,124.53a22,22,0,0,1,7.49,1.24,20,20,0,0,1,6.13,3.54L411.66,135a15,15,0,0,0-4.69-2.75,14.82,14.82,0,0,0-4.93-.85,6.26,6.26,0,0,0-4.22,1.18,3.66,3.66,0,0,0-1.32,2.83,2.75,2.75,0,0,0,.59,1.8,5.13,5.13,0,0,0,1.56,1.27,13.72,13.72,0,0,0,2.21.94c.83.28,1.69.55,2.6.83,1.42.39,2.93.85,4.54,1.38a19.19,19.19,0,0,1,4.49,2.16,11.72,11.72,0,0,1,3.42,3.45,9.71,9.71,0,0,1,1.36,5.34,11.26,11.26,0,0,1-1.07,5,9.87,9.87,0,0,1-3,3.66,13.94,13.94,0,0,1-4.75,2.24,24.49,24.49,0,0,1-14.45-.7,19.28,19.28,0,0,1-6.61-4.08l4.72-5.54a16.42,16.42,0,0,0,5.05,3.13,14.92,14.92,0,0,0,5.34,1.06q6.72,0,6.72-4.49a3.4,3.4,0,0,0-1.74-3,24.52,24.52,0,0,0-6.05-2.28q-3.06-.89-5.45-1.83a14.68,14.68,0,0,1-4-2.27,8.85,8.85,0,0,1-2.47-3.15,10.58,10.58,0,0,1-.86-4.49,9.89,9.89,0,0,1,1.12-4.75,11,11,0,0,1,3-3.54,13.74,13.74,0,0,1,4.43-2.21A18.49,18.49,0,0,1,402.52,124.53Z"></path>
      <path class="cls-4"
        d="M724.42,19.65l10.64,41.67,10.66-41.67c2.75-10.51,7.43-17.43,12.77-17.43H712.61C717.94,2.22,722.63,9.14,724.42,19.65Z"></path>
      <g class="cls-5">
        <rect class="cls-6" x="652.89" y="0.17" width="107.39" height="165.53"></rect>
      </g>
      <g class="cls-7">
        <rect class="cls-8" x="768.88" y="0.18" width="98.51" height="165.53"></rect>
      </g>
      <path class="cls-4"
        d="M803.61,146.24l-10.2-39.91-10.13,39.91c-2.75,10.51-7.44,17.44-12.78,17.44h45.89C811.05,163.68,806.36,156.75,803.61,146.24Z"></path>
      <g class="cls-9">
        <rect class="cls-10" x="710.8" y="0.18" width="107.39" height="165.53"></rect>
      </g>
      <path class="cls-4"
        d="M667.48,146.24l10.2-39.91,10.14,39.91c2.75,10.51,7.44,17.44,12.77,17.44H654.71C660,163.68,664.73,156.75,667.48,146.24Z"></path>
      <g class="cls-11">
        <rect class="cls-12" x="603.71" y="0.19" width="98.51" height="165.53"></rect>
      </g>
    </g>
  </g>
</svg>
